<?xml version="1.0" encoding="UTF-8"?>
<svg version="1.1" xmlns="http://www.w3.org/2000/svg" width="512" height="512">
<path d="M0 0 C156.75 0 313.5 0 475 0 C475 156.75 475 313.5 475 475 C318.25 475 161.5 475 0 475 C0 318.25 0 161.5 0 0 Z M317 51 C314.96166576 52.2739589 312.96147874 53.61061923 311 55 C311 55.66 311 56.32 311 57 C309.35 57.33 307.7 57.66 306 58 C306 58.66 306 59.32 306 60 C305.21625 60.20625 304.4325 60.4125 303.625 60.625 C298.75264698 62.4731339 294.22073355 64.9303756 290 68 C290 68.66 290 69.32 290 70 C289.113125 70.28875 288.22625 70.5775 287.3125 70.875 C284.49617576 71.83148748 281.74916844 72.86798946 279 74 C278.67460431 77.10055631 278.67460431 77.10055631 280.875 79.1875 C282.78811334 81.21631554 282.78811334 81.21631554 285 81 C285.12375 81.969375 285.2475 82.93875 285.375 83.9375 C285.58125 84.948125 285.7875 85.95875 286 87 C286.66 87.33 287.32 87.66 288 88 C288.72693904 89.97888961 289.39816251 91.97954558 290 94 C290.66 94 291.32 94 292 94 C292.12375 94.94875 292.2475 95.8975 292.375 96.875 C292.71687177 100.08667191 292.71687177 100.08667191 295 102 C295.71408334 103.98356483 296.38617742 105.98315437 297 108 C297.66 108 298.32 108 299 108 C299 109.98 299 111.96 299 114 C300.485 114.495 300.485 114.495 302 115 C302.6953125 117.03125 302.6953125 117.03125 303.125 119.5 C303.47887416 122.53930366 303.47887416 122.53930366 305 125 C305.144375 126.155 305.28875 127.31 305.4375 128.5 C305.623125 129.655 305.80875 130.81 306 132 C306.66 132.33 307.32 132.66 308 133 C308.5625 134.9609375 308.5625 134.9609375 309 137.375 C309.60200113 140.67525619 310.07605982 142.11408973 312 145 C312.5625 147.26953125 312.5625 147.26953125 313 149.8125 C313.71835385 153.69048835 314.70267814 157.27019966 316 161 C316.3647053 162.43486247 316.71844054 163.87254744 317.0625 165.3125 C317.60967585 168.78003431 317.60967585 168.78003431 319 170 C319.28909963 173.16632932 319.44879615 176.33313762 319.62109375 179.5078125 C319.89392159 183.01662028 319.89392159 183.01662028 321.00390625 186.3359375 C322.21284166 190.78292344 322.37343808 194.9151072 322.5 199.5 C322.72090181 205.47737509 323.09829393 211.27415226 324.0625 217.1875 C326.16671229 231.66384771 325.85519718 246.8181264 323.50390625 261.23828125 C322.75632065 266.81909469 322.58521753 272.41286896 322.42993164 278.03833008 C322.25350749 283.01369109 321.47047331 287.20798697 320 292 C319.80140348 293.80747975 319.65155466 295.62132466 319.5625 297.4375 C319.23823629 301.75315513 318.37754059 305.12718732 316.69140625 309.0859375 C315.93201386 311.18821022 315.65955775 313.09192253 315.4375 315.3125 C315 319 315 319 313 322 C312.62080225 323.94991159 312.62080225 323.94991159 312.5 326 C312.25179145 329.27635286 311.94435842 330.08346237 310 333 C309.92094936 335.33199388 309.91201231 337.66832622 310 340 C309.34 340 308.68 340 308 340 C305.74380458 342.91216721 305.74380458 342.91216721 305.5 346.625 C305.335 347.73875 305.17 348.8525 305 350 C304.34 350.33 303.68 350.66 303 351 C302.31060191 353.32671854 301.64533078 355.66067594 301 358 C300.34 358.99 299.68 359.98 299 361 C297.91244509 364.05874818 296.96225339 367.13085492 296.0625 370.25 C295 373 295 373 292 375 C291.63557767 376.66014616 291.30027117 378.32706064 291 380 C290.34 380.33 289.68 380.66 289 381 C288.7525 381.825 288.505 382.65 288.25 383.5 C286.80893559 387.53498034 284.69813232 390.44277419 282.14453125 393.8515625 C280.79825883 395.91375029 280.79825883 395.91375029 281.171875 398.15625 C282.52791746 401.17536339 285.24253428 402.39333147 288 404 C289.64669137 404.977723 291.29246225 405.95699732 292.9375 406.9375 C293.80117188 407.45054687 294.66484375 407.96359375 295.5546875 408.4921875 C297.63457576 409.77467451 299.59967241 411.11092053 301.5625 412.5625 C304.89100216 415.01925159 308.42818427 416.95602852 312.08203125 418.88671875 C314 420 314 420 316 422 C318.10820797 421.6814823 318.10820797 421.6814823 320 421 C320 419.02 320 417.04 320 415 C320.99 415 321.98 415 323 415 C323.3403125 413.7625 323.3403125 413.7625 323.6875 412.5 C324.72179508 409.7418798 325.61509128 407.89999226 327.1875 405.5 C332.57615225 397.2085321 337.44838553 387.81855428 340 378.25 C340.495 376.64125 340.495 376.64125 341 375 C341.66 374.67 342.32 374.34 343 374 C343.68939809 371.67328146 344.35466922 369.33932406 345 367 C345.66 366.01 346.32 365.02 347 364 C347.68255989 361.67126625 348.35050775 359.33817209 349 357 C349.33 356.67 349.66 356.34 350 356 C350.23192865 354.48530552 350.41215238 352.96245438 350.5625 351.4375 C350.68818359 350.19806641 350.68818359 350.19806641 350.81640625 348.93359375 C350.87699219 348.29550781 350.93757813 347.65742188 351 347 C351.66 347 352.32 347 353 347 C353.18175781 345.96939453 353.18175781 345.96939453 353.3671875 344.91796875 C353.53476562 344.01691406 353.70234375 343.11585938 353.875 342.1875 C354.03742188 341.29417969 354.19984375 340.40085937 354.3671875 339.48046875 C355 337 355 337 357 334 C357.45772063 331.26127045 357.45772063 331.26127045 357.625 328.3125 C357.73714844 326.82169922 357.73714844 326.82169922 357.8515625 325.30078125 C357.90054688 324.54152344 357.94953125 323.78226562 358 323 C358.66 323 359.32 323 360 323 C360.03738281 322.28714844 360.07476562 321.57429688 360.11328125 320.83984375 C360.67003768 312.7286668 360.67003768 312.7286668 362.5 308.6875 C364.45401894 303.8838701 364.50552043 299.45316134 364.69140625 294.3046875 C365 291 365 291 365.99609375 288.7109375 C367.56155488 284.48358333 367.39012296 280.224331 367.5 275.75 C367.72815954 268.91586495 368.11939344 262.21012234 369.0625 255.4375 C370.81815697 242.15196491 370.62192752 228.7420054 368.78222656 215.47949219 C367.86331003 208.68595842 367.60709431 201.89048256 367.42993164 195.04101562 C367.27674701 190.49668301 366.78535077 187.2148281 365 183 C364.78513543 180.54673618 364.6448754 178.08627699 364.5625 175.625 C364.3044142 170.1421544 363.36956124 166.02346983 361 161 C360.37024382 157.83496732 359.88158102 154.67152898 359.4296875 151.4765625 C359.25593336 149.06399336 359.25593336 149.06399336 358 148 C357.84107168 146.62850746 357.7230369 145.25218509 357.625 143.875 C357.18413413 139.45234556 355.87427907 136.04844278 354 132 C353.25299761 129.68155967 352.62495372 127.35559479 352 125 C351.34 125 350.68 125 350 125 C350.020625 123.906875 350.04125 122.81375 350.0625 121.6875 C350.18544452 118.05615809 350.18544452 118.05615809 349 115 C348.34 115 347.68 115 347 115 C347.04125 114.05125 347.0825 113.1025 347.125 112.125 C347.34973818 108.89755144 347.34973818 108.89755144 345 107 C344.40165446 105.47943382 343.86493344 103.93387912 343.375 102.375 C343.11460937 101.55773437 342.85421875 100.74046875 342.5859375 99.8984375 C342.39257812 99.27195313 342.19921875 98.64546875 342 98 C341.34 98 340.68 98 340 98 C340 96.02 340 94.04 340 92 C339.01 91.67 338.02 91.34 337 91 C337 89.02 337 87.04 337 85 C336.01 84.67 335.02 84.34 334 84 C333.87625 82.865625 333.7525 81.73125 333.625 80.5625 C333.41875 79.386875 333.2125 78.21125 333 77 C332.34 76.67 331.68 76.34 331 76 C330.27306096 74.02111039 329.60183749 72.02045442 329 70 C328.34 70 327.68 70 327 70 C326.87625 69.030625 326.7525 68.06125 326.625 67.0625 C326.41875 66.051875 326.2125 65.04125 326 64 C325.34 63.67 324.68 63.34 324 63 C323.27306096 61.02111039 322.60183749 59.02045442 322 57 C321.34 57 320.68 57 320 57 C319.87625 56.195625 319.7525 55.39125 319.625 54.5625 C319.41875 53.716875 319.2125 52.87125 319 52 C318.34 51.67 317.68 51.34 317 51 Z M230 105 C229.67 105.99 229.34 106.98 229 108 C228.195625 108.12375 227.39125 108.2475 226.5625 108.375 C225.716875 108.58125 224.87125 108.7875 224 109 C223.67 109.66 223.34 110.32 223 111 C221.344389 111.93393441 219.65049478 112.80102783 217.9375 113.625 C216.55884766 114.29402344 216.55884766 114.29402344 215.15234375 114.9765625 C214.44207031 115.31429687 213.73179687 115.65203125 213 116 C213 116.66 213 117.32 213 118 C211.02 118.66 209.04 119.32 207 120 C207 120.66 207 121.32 207 122 C205.35 122.33 203.7 122.66 202 123 C202 123.66 202 124.32 202 125 C201.2575 125.103125 200.515 125.20625 199.75 125.3125 C196.78277013 126.05430747 195.19447117 126.88680554 193 129 C193 129.99 193 130.98 193 132 C193.99 132 194.98 132 196 132 C196.66 134.31 197.32 136.62 198 139 C198.66 139 199.32 139 200 139 C199.938125 139.78375 199.87625 140.5675 199.8125 141.375 C199.874375 142.24125 199.93625 143.1075 200 144 C200.99 144.66 201.98 145.32 203 146 C203.36628677 147.99422795 203.70131344 149.99453311 204 152 C204.66 152.33 205.32 152.66 206 153 C206.4763298 154.59910719 206.94360818 156.20150427 207.36328125 157.81640625 C209.2467027 164.92442218 209.2467027 164.92442218 213 171 C213.12375 172.216875 213.2475 173.43375 213.375 174.6875 C213.695814 177.574826 214.06107532 179.11683973 215.4375 181.75 C217.44082849 185.91692326 217.93181117 189.93475857 218.5703125 194.48828125 C218.73943577 196.93201798 218.73943577 196.93201798 220 198 C220.18936741 200.75334198 220.32888609 203.49326223 220.4375 206.25 C220.69194454 211.82689683 221.09444964 217.24165712 222.0625 222.75 C223.83078091 233.35968548 223.09029522 243.45574026 221.50390625 254.0390625 C220.8549705 259.13999933 220.59513693 264.22897358 220.42993164 269.36645508 C220.27064092 273.15829622 219.73331903 275.67444605 218 279 C217.71306612 281.24133258 217.51033409 283.4944319 217.375 285.75 C217.30023438 286.92046875 217.22546875 288.0909375 217.1484375 289.296875 C217.09945312 290.18890625 217.05046875 291.0809375 217 292 C216.34 292 215.68 292 215 292 C214.87882812 292.69867188 214.75765625 293.39734375 214.6328125 294.1171875 C214.46523437 295.02726563 214.29765625 295.93734375 214.125 296.875 C213.96257812 297.77992188 213.80015625 298.68484375 213.6328125 299.6171875 C213 302 213 302 211 304 C210.53993654 306.20250992 210.53993654 306.20250992 210.375 308.625 C210.30023438 309.44226563 210.22546875 310.25953125 210.1484375 311.1015625 C210.09945312 311.72804688 210.05046875 312.35453125 210 313 C209.01 313.33 208.02 313.66 207 314 C207 315.98 207 317.96 207 320 C206.34 320 205.68 320 205 320 C204.76925781 320.53367187 204.53851563 321.06734375 204.30078125 321.6171875 C202.42299512 325.90714948 200.48214378 330.16179464 198.4375 334.375 C198.04433594 335.18710937 197.65117187 335.99921875 197.24609375 336.8359375 C196.03531081 338.93867653 194.79622644 340.38599943 193 342 C194.44090102 345.6373015 196.05015934 346.93184847 199.4375 348.8125 C204.2085459 351.5259892 208.78881574 354.44645836 213.359375 357.484375 C216.16922884 359.09713134 218.90201021 360.07603813 222 361 C222 361.66 222 362.32 222 363 C223.65 363.33 225.3 363.66 227 364 C227.495 365.485 227.495 365.485 228 367 C229.32 367 230.64 367 232 367 C232.39832031 366.25234375 232.79664063 365.5046875 233.20703125 364.734375 C233.73683594 363.74953125 234.26664063 362.7646875 234.8125 361.75 C235.33457031 360.77546875 235.85664063 359.8009375 236.39453125 358.796875 C238 356 238 356 239.6875 353.8125 C241.39669081 351.45218888 241.23712876 349.84554514 241 347 C241.66 347 242.32 347 243 347 C245.96947751 340.65262248 245.96947751 340.65262248 248.125 334 C248.41375 333.01 248.7025 332.02 249 331 C249.66 330.67 250.32 330.34 251 330 C251.144375 328.9275 251.28875 327.855 251.4375 326.75 C252.01149508 322.92336612 253.05465879 321.24223536 255 318 C255.35543427 315.66993089 255.6913753 313.33672984 256 311 C256.66 310.34 257.32 309.68 258 309 C258.24287489 306.55987051 258.24287489 306.55987051 258.125 303.875 C258.10695313 302.96492187 258.08890625 302.05484375 258.0703125 301.1171875 C258.04710937 300.41851562 258.02390625 299.71984375 258 299 C258.66 299 259.32 299 260 299 C260.19335938 297.83082031 260.38671875 296.66164063 260.5859375 295.45703125 C260.84866686 293.90880468 261.11170392 292.3606303 261.375 290.8125 C261.50132812 290.04357422 261.62765625 289.27464844 261.7578125 288.48242188 C262.78781352 282.48266596 262.78781352 282.48266596 264.06640625 279.57421875 C265.54955632 275.48469617 265.43418622 271.31885394 265.5625 267 C265.90598163 256.91479464 265.90598163 256.91479464 267 252 C268.13244622 242.37992655 267.95355123 233.33253289 266.83056641 223.7331543 C266.0212077 216.7586227 265.64527244 209.81794714 265.51806641 202.79785156 C265.36116161 197.99876355 264.53259189 194.29447037 262.69262695 189.86621094 C261.66788559 187.10515244 261.47870819 184.42526418 261.3125 181.5 C261.24675781 180.4584375 261.18101562 179.416875 261.11328125 178.34375 C261.05720703 177.18359375 261.05720703 177.18359375 261 176 C260.34 176 259.68 176 259 176 C258.95101562 175.15695313 258.90203125 174.31390625 258.8515625 173.4453125 C258.73941406 171.80175781 258.73941406 171.80175781 258.625 170.125 C258.52058594 168.48917969 258.52058594 168.48917969 258.4140625 166.8203125 C258.26746509 163.86953526 258.26746509 163.86953526 256 162 C255.38570371 159.7134527 254.98591697 157.42254334 254.5625 155.09375 C254.1331915 152.8002393 254.1331915 152.8002393 252 151 C251.43479997 148.34462628 251.26211802 145.70855287 251 143 C250.01 142.67 249.02 142.34 248 142 C248.04125 141.05125 248.0825 140.1025 248.125 139.125 C248.34973818 135.89755144 248.34973818 135.89755144 246 134 C245.3177433 132.4308096 244.64045164 130.859275 243.98828125 129.27734375 C242.7258197 126.36819322 241.34066168 123.53137756 239.9375 120.6875 C239.43089844 119.66011719 238.92429687 118.63273437 238.40234375 117.57421875 C237.11995713 114.93150618 237.11995713 114.93150618 235 113 C234.690625 112.01 234.38125 111.02 234.0625 110 C233.24072925 106.72778248 233.24072925 106.72778248 230 105 Z M142 160 C141.67 160.66 141.34 161.32 141 162 C138.46402099 163.3736553 135.86395116 164.56338639 133.25 165.78125 C130.86303466 166.79604539 130.86303466 166.79604539 130 169 C126.8074307 171.12837953 123.59175173 172.66592079 120 174 C120 174.66 120 175.32 120 176 C118.02 176.66 116.04 177.32 114 178 C114 178.66 114 179.32 114 180 C113.443125 180.12375 112.88625 180.2475 112.3125 180.375 C109.77885636 181.05976855 107.42078968 181.99133763 105 183 C105.33 184.32 105.66 185.64 106 187 C106.66 187 107.32 187 108 187 C108.12375 187.763125 108.2475 188.52625 108.375 189.3125 C108.88102792 192.20267136 108.88102792 192.20267136 111 195 C111.165 195.86625 111.33 196.7325 111.5 197.625 C111.665 198.40875 111.83 199.1925 112 200 C112.66 200.33 113.32 200.66 114 201 C114.36373672 203.06270949 114.44288964 205.09736126 114.55859375 207.1875 C114.95393942 209.70651664 115.56398451 211.38839187 116.515625 213.71484375 C118.79938375 220.33123867 118.41009915 227.28146912 118.33618164 234.19311523 C118.31251769 236.56072959 118.31564576 238.92721848 118.32226562 241.29492188 C118.31668916 242.82292327 118.30957948 244.35092001 118.30078125 245.87890625 C118.30214836 246.922994 118.30214836 246.922994 118.30354309 247.98817444 C118.22487271 253.52672683 117.50321126 258.99357748 115 264 C114.9310528 265.37342831 114.91532292 266.75002102 114.9375 268.125 C114.958125 269.40375 114.97875 270.6825 115 272 C114.34 272 113.68 272 113 272 C111.68373308 275.61973402 111 278.09567131 111 282 C110.01 282 109.02 282 108 282 C108 283.98 108 285.96 108 288 C107.34 288 106.68 288 106 288 C106.66 289.32 107.32 290.64 108 292 C109.32 292 110.64 292 112 292 C112.33 292.99 112.66 293.98 113 295 C114.65 295.33 116.3 295.66 118 296 C118 296.66 118 297.32 118 298 C119.65 298.33 121.3 298.66 123 299 C123.33 299.99 123.66 300.98 124 302 C125.32796291 302.35412344 126.66216607 302.68521554 128 303 C129 304 130 305 131 306 C131.99 306 132.98 306 134 306 C134.33 306.99 134.66 307.98 135 309 C136.64551962 309.71727778 138.31422289 310.38325228 140 311 C140.99 311.99 140.99 311.99 142 313 C144.02310139 313.10965271 144.02310139 313.10965271 146 312 C147.70419138 309.48245487 147.70419138 309.48245487 149.0625 306.375 C149.57554687 305.28316406 150.08859375 304.19132813 150.6171875 303.06640625 C151.07351562 302.05449219 151.52984375 301.04257812 152 300 C152.31195313 299.32839844 152.62390625 298.65679687 152.9453125 297.96484375 C154.70562747 294.04582674 156.04347263 290.00399141 157.3515625 285.91796875 C158 284 158 284 159 282 C159.27024708 279.70075503 159.44497841 277.40198513 159.62109375 275.09375 C160 273 160 273 162 271 C162.42442154 268.33852329 162.74781038 265.7406504 163 263.0625 C163.51708407 258.06715446 164.08988233 253.17045369 165.125 248.25 C167.04898985 238.02976589 165.95933319 228.74283113 163.7265625 218.6640625 C162.85512517 214.26939465 162.51259457 209.95775372 162.30859375 205.48828125 C161.98462653 202.87603924 161.1928726 201.31665991 160 199 C159.5859375 196.640625 159.5859375 196.640625 159.375 194.25 C159.30023438 193.45078125 159.22546875 192.6515625 159.1484375 191.828125 C159.09945312 191.22484375 159.05046875 190.6215625 159 190 C158.34 190 157.68 190 157 190 C156.34 186.7 155.68 183.4 155 180 C154.34 180 153.68 180 153 180 C152.87625 178.88625 152.7525 177.7725 152.625 176.625 C152.3534187 172.96896323 152.3534187 172.96896323 150 171 C149.7525 169.7315625 149.7525 169.7315625 149.5 168.4375 C149.2525 167.2309375 149.2525 167.2309375 149 166 C148.34 165.67 147.68 165.34 147 165 C146.375 162.4375 146.375 162.4375 146 160 C144.68 160 143.36 160 142 160 Z " fill="#318989" transform="translate(18,18)"/>
</svg>
